<?xml version="1.0" encoding="UTF-8"?><!DOCTYPE score-partwise  PUBLIC '-//Recordare//DTD MusicXML 3.0 Partwise//EN'  'http://www.musicxml.org/dtds/partwise.dtd'><score-partwise version="3.0"><movement-title>Loreley</movement-title><identification><creator type="composer">Ph. Friedrich Silcher (1789–1860), 1837</creator><creator type="poet">Heinrich Heine (1797–1856), 1824</creator><creator type="arranger">Klavier: August Linder; MML: mirabilos</creator><rights>MML encoding &amp; arrangement © 2016 mirabilos, published under The MirOS Licence; copyright for text, music, and piano arrangement has expired</rights><encoding><encoder>mirabilos, 2016</encoder><software>MMLlib by Natureshadow, Creeparoo, and mirabilos</software></encoding><source>Linder, August (Hrsg.): Deutsche Weisen : Die beliebtesten Volks- und geistlichen Lieder. Stuttgart: Albert Auer’s Musikverlag, n.d., c. 1900.</source><miscellaneous><miscellaneous-field name="duration">37</miscellaneous-field><miscellaneous-field name="instruments">Piano, Voice</miscellaneous-field><miscellaneous-field name="key signature">C Major</miscellaneous-field><miscellaneous-field name="language">German</miscellaneous-field><miscellaneous-field name="measures">16</miscellaneous-field><miscellaneous-field name="mml tracks">4 (5)</miscellaneous-field><miscellaneous-field name="pickup measure">1/8</miscellaneous-field><miscellaneous-field name="tempo">Andante</miscellaneous-field><miscellaneous-field name="time signature">6/8</miscellaneous-field><miscellaneous-field name="verses">3</miscellaneous-field><miscellaneous-field name="voices">4</miscellaneous-field></miscellaneous></identification><part-list><score-part id="P1"><part-name>Track 1</part-name></score-part><score-part id="P2"><part-name>Track 2</part-name></score-part><score-part id="P3"><part-name>Track 3</part-name></score-part><score-part id="P4"><part-name>Track 4</part-name></score-part></part-list><part id="P1"><measure number="1"><attributes><divisions>4</divisions><clef><sign>G</sign><line>2</line></clef></attributes><direction><direction-type><metronome><beat-unit>quarter</beat-unit><per-minute>76</per-minute></metronome></direction-type><sound tempo="76"/></direction><note><pitch><step>G</step><octave>4</octave></pitch><duration>2</duration><type>eighth</type></note></measure><measure number="2"><note><pitch><step>G</step><octave>4</octave></pitch><duration>3</duration><type>eighth</type><dot/><notations><slur type="start"/></notations></note><note><pitch><step>A</step><octave>4</octave></pitch><duration>1</duration><type>16th</type><notations><slur type="stop"/></notations></note><note><pitch><step>G</step><octave>4</octave></pitch><duration>2</duration><type>eighth</type></note><note><pitch><step>C</step><octave>5</octave></pitch><duration>2</duration><type>eighth</type><notations><slur type="start"/></notations></note><note><pitch><step>B</step><octave>4</octave></pitch><duration>2</duration><type>eighth</type><notations><slur type="stop"/></notations></note><note><pitch><step>A</step><octave>4</octave></pitch><duration>2</duration><type>eighth</type></note></measure><measure number="3"><note><pitch><step>G</step><octave>4</octave></pitch><duration>6</duration><type>quarter</type><dot/></note><note><pitch><step>F</step><octave>4</octave></pitch><duration>4</duration><type>quarter</type></note><note><pitch><step>F</step><octave>4</octave></pitch><duration>2</duration><type>eighth</type></note></measure><measure number="4"><note><pitch><step>E</step><octave>4</octave></pitch><duration>3</duration><type>eighth</type><dot/></note><note><pitch><step>E</step><octave>4</octave></pitch><duration>1</duration><type>16th</type></note><note><pitch><step>E</step><octave>4</octave></pitch><duration>2</duration><type>eighth</type></note><note><pitch><step>D</step><octave>4</octave></pitch><duration>2</duration><type>eighth</type><notations><slur type="start"/></notations></note><note><pitch><step>C</step><octave>4</octave></pitch><duration>2</duration><type>eighth</type><notations><slur type="stop"/></notations></note><note><pitch><step>D</step><octave>4</octave></pitch><duration>2</duration><type>eighth</type></note></measure><measure number="5"><note><pitch><step>E</step><octave>4</octave></pitch><duration>6</duration><type>quarter</type><dot/><notations><slur type="start"/></notations></note><note><pitch><step>E</step><octave>4</octave></pitch><duration>2</duration><type>eighth</type><notations><slur type="stop"/></notations></note><note><rest/><duration>2</duration><type>eighth</type></note><note><pitch><step>G</step><octave>4</octave></pitch><duration>2</duration><type>eighth</type></note></measure><measure number="6"><note><pitch><step>G</step><octave>4</octave></pitch><duration>3</duration><type>eighth</type><dot/><notations><slur type="start"/></notations></note><note><pitch><step>A</step><octave>4</octave></pitch><duration>1</duration><type>16th</type><notations><slur type="stop"/></notations></note><note><pitch><step>G</step><octave>4</octave></pitch><duration>2</duration><type>eighth</type></note><note><pitch><step>C</step><octave>5</octave></pitch><duration>2</duration><type>eighth</type><notations><slur type="start"/></notations></note><note><pitch><step>B</step><octave>4</octave></pitch><duration>2</duration><type>eighth</type><notations><slur type="stop"/></notations></note><note><pitch><step>A</step><octave>4</octave></pitch><duration>2</duration><type>eighth</type></note></measure><measure number="7"><note><pitch><step>G</step><octave>4</octave></pitch><duration>6</duration><type>quarter</type><dot/></note><note><pitch><step>F</step><octave>4</octave></pitch><duration>4</duration><type>quarter</type></note><note><pitch><step>F</step><octave>4</octave></pitch><duration>2</duration><type>eighth</type></note></measure><measure number="8"><note><pitch><step>E</step><octave>4</octave></pitch><duration>3</duration><type>eighth</type><dot/></note><note><pitch><step>E</step><octave>4</octave></pitch><duration>1</duration><type>16th</type></note><note><pitch><step>E</step><octave>4</octave></pitch><duration>2</duration><type>eighth</type></note><note><pitch><step>G</step><octave>4</octave></pitch><duration>2</duration><type>eighth</type></note><note><pitch><step>F</step><octave>4</octave></pitch><duration>2</duration><type>eighth</type></note><note><pitch><step>D</step><octave>4</octave></pitch><duration>2</duration><type>eighth</type></note></measure><measure number="9"><note><pitch><step>C</step><octave>4</octave></pitch><duration>6</duration><type>quarter</type><dot/><notations><slur type="start"/></notations></note><note><pitch><step>C</step><octave>4</octave></pitch><duration>2</duration><type>eighth</type><notations><slur type="stop"/></notations></note><note><rest/><duration>2</duration><type>eighth</type></note><note><pitch><step>E</step><octave>4</octave></pitch><duration>2</duration><type>eighth</type></note></measure><measure number="10"><note><pitch><step>D</step><octave>4</octave></pitch><duration>3</duration><type>eighth</type><dot/><notations><slur type="start"/></notations></note><note><pitch><step>E</step><octave>4</octave></pitch><duration>1</duration><type>16th</type><notations><slur type="stop"/></notations></note><note><pitch><step>D</step><octave>4</octave></pitch><duration>2</duration><type>eighth</type></note><note><pitch><step>G</step><octave>4</octave></pitch><duration>2</duration><type>eighth</type></note><note><pitch><step>D</step><octave>4</octave></pitch><duration>2</duration><type>eighth</type></note><note><pitch><step>D</step><octave>4</octave></pitch><duration>2</duration><type>eighth</type></note></measure><measure number="11"><note><pitch><step>B</step><octave>4</octave></pitch><duration>6</duration><type>quarter</type><dot/></note><note><pitch><step>A</step><octave>4</octave></pitch><duration>4</duration><type>quarter</type></note><note><pitch><step>A</step><octave>4</octave></pitch><duration>2</duration><type>eighth</type></note></measure><measure number="12"><note><pitch><step>G</step><octave>4</octave></pitch><duration>4</duration><type>quarter</type></note><note><pitch><step>G</step><octave>4</octave></pitch><duration>2</duration><type>eighth</type></note><note><pitch><step>F</step><alter>1</alter><octave>4</octave></pitch><duration>2</duration><type>eighth</type><notations><slur type="start"/></notations></note><note><pitch><step>G</step><octave>4</octave></pitch><duration>2</duration><type>eighth</type><notations><slur type="stop"/></notations></note><note><pitch><step>A</step><octave>4</octave></pitch><duration>2</duration><type>eighth</type></note></measure><measure number="13"><note><pitch><step>G</step><octave>4</octave></pitch><duration>6</duration><type>quarter</type><dot/><notations><slur type="start"/></notations></note><note><pitch><step>G</step><octave>4</octave></pitch><duration>4</duration><type>quarter</type><notations><slur type="stop"/></notations></note><note><pitch><step>G</step><octave>4</octave></pitch><duration>2</duration><type>eighth</type></note></measure><measure number="14"><note><pitch><step>G</step><octave>4</octave></pitch><duration>3</duration><type>eighth</type><dot/></note><note><pitch><step>A</step><octave>4</octave></pitch><duration>1</duration><type>16th</type></note><note><pitch><step>G</step><octave>4</octave></pitch><duration>2</duration><type>eighth</type></note><note><pitch><step>C</step><octave>5</octave></pitch><duration>2</duration><type>eighth</type><notations><slur type="start"/></notations></note><note><pitch><step>B</step><octave>4</octave></pitch><duration>2</duration><type>eighth</type><notations><slur type="stop"/></notations></note><note><pitch><step>A</step><octave>4</octave></pitch><duration>2</duration><type>eighth</type></note></measure><measure number="15"><note><pitch><step>G</step><octave>4</octave></pitch><duration>4</duration><type>quarter</type><notations><slur type="start"/></notations></note><note><pitch><step>E</step><octave>5</octave></pitch><duration>2</duration><type>eighth</type><notations><slur type="stop"/></notations></note><note><pitch><step>D</step><octave>5</octave></pitch><duration>4</duration><type>quarter</type></note><note><pitch><step>D</step><octave>5</octave></pitch><duration>2</duration><type>eighth</type></note></measure><measure number="16"><note><pitch><step>C</step><octave>5</octave></pitch><duration>3</duration><type>eighth</type><dot/></note><note><pitch><step>C</step><octave>5</octave></pitch><duration>1</duration><type>16th</type></note><note><pitch><step>C</step><octave>5</octave></pitch><duration>2</duration><type>eighth</type></note><note><pitch><step>B</step><octave>4</octave></pitch><duration>2</duration><type>eighth</type><notations><slur type="start"/></notations></note><note><pitch><step>A</step><octave>4</octave></pitch><duration>2</duration><type>eighth</type><notations><slur type="stop"/></notations></note><note><pitch><step>B</step><octave>4</octave></pitch><duration>2</duration><type>eighth</type></note></measure><measure number="17"><note><pitch><step>C</step><octave>5</octave></pitch><duration>6</duration><type>quarter</type><dot/><notations><slur type="start"/></notations></note><note><pitch><step>C</step><octave>5</octave></pitch><duration>2</duration><type>eighth</type><notations><slur type="stop"/></notations></note><note><rest/><duration>2</duration><type>eighth</type></note><barline><bar-style>light-heavy</bar-style></barline></measure></part><part id="P2"><measure number="1"><attributes><divisions>4</divisions><clef><sign>G</sign><line>2</line></clef></attributes><direction><direction-type><metronome><beat-unit>quarter</beat-unit><per-minute>76</per-minute></metronome></direction-type><sound tempo="76"/></direction><note><rest/><duration>2</duration><type>eighth</type></note></measure><measure number="2"><note><pitch><step>E</step><octave>4</octave></pitch><duration>3</duration><type>eighth</type><dot/><notations><slur type="start"/></notations></note><note><pitch><step>F</step><octave>4</octave></pitch><duration>1</duration><type>16th</type><notations><slur type="stop"/></notations></note><note><pitch><step>E</step><octave>4</octave></pitch><duration>2</duration><type>eighth</type></note><note><pitch><step>F</step><octave>4</octave></pitch><duration>2</duration><type>eighth</type><notations><slur type="start"/></notations></note><note><pitch><step>F</step><octave>4</octave></pitch><duration>2</duration><type>eighth</type><notations><slur type="stop"/></notations></note><note><pitch><step>F</step><octave>4</octave></pitch><duration>2</duration><type>eighth</type></note></measure><measure number="3"><note><pitch><step>E</step><octave>4</octave></pitch><duration>6</duration><type>quarter</type><dot/></note><note><pitch><step>D</step><octave>4</octave></pitch><duration>4</duration><type>quarter</type></note><note><pitch><step>D</step><octave>4</octave></pitch><duration>2</duration><type>eighth</type></note></measure><measure number="4"><note><pitch><step>C</step><octave>4</octave></pitch><duration>3</duration><type>eighth</type><dot/></note><note><pitch><step>C</step><octave>4</octave></pitch><duration>1</duration><type>16th</type></note><note><pitch><step>C</step><octave>4</octave></pitch><duration>2</duration><type>eighth</type></note><note><pitch><step>B</step><octave>3</octave></pitch><duration>2</duration><type>eighth</type><notations><slur type="start"/></notations></note><note><pitch><step>A</step><octave>3</octave></pitch><duration>2</duration><type>eighth</type><notations><slur type="stop"/></notations></note><note><pitch><step>B</step><octave>3</octave></pitch><duration>2</duration><type>eighth</type></note></measure><measure number="5"><note><pitch><step>C</step><octave>4</octave></pitch><duration>6</duration><type>quarter</type><dot/><notations><slur type="start"/></notations></note><note><pitch><step>C</step><octave>4</octave></pitch><duration>2</duration><type>eighth</type><notations><slur type="stop"/></notations></note><note><rest/><duration>2</duration><type>eighth</type></note><note><rest/><duration>2</duration><type>eighth</type></note></measure><measure number="6"><note><pitch><step>E</step><octave>4</octave></pitch><duration>3</duration><type>eighth</type><dot/><notations><slur type="start"/></notations></note><note><pitch><step>F</step><octave>4</octave></pitch><duration>1</duration><type>16th</type><notations><slur type="stop"/></notations></note><note><pitch><step>E</step><octave>4</octave></pitch><duration>2</duration><type>eighth</type></note><note><pitch><step>F</step><octave>4</octave></pitch><duration>2</duration><type>eighth</type><notations><slur type="start"/></notations></note><note><pitch><step>F</step><octave>4</octave></pitch><duration>2</duration><type>eighth</type><notations><slur type="stop"/></notations></note><note><pitch><step>F</step><octave>4</octave></pitch><duration>2</duration><type>eighth</type></note></measure><measure number="7"><note><pitch><step>E</step><octave>4</octave></pitch><duration>6</duration><type>quarter</type><dot/></note><note><pitch><step>D</step><octave>4</octave></pitch><duration>4</duration><type>quarter</type></note><note><pitch><step>D</step><octave>4</octave></pitch><duration>2</duration><type>eighth</type></note></measure><measure number="8"><note><pitch><step>C</step><octave>4</octave></pitch><duration>3</duration><type>eighth</type><dot/></note><note><pitch><step>C</step><octave>4</octave></pitch><duration>1</duration><type>16th</type></note><note><pitch><step>C</step><octave>4</octave></pitch><duration>2</duration><type>eighth</type></note><note><pitch><step>B</step><octave>3</octave></pitch><duration>2</duration><type>eighth</type></note><note><pitch><step>B</step><octave>3</octave></pitch><duration>2</duration><type>eighth</type></note><note><pitch><step>B</step><octave>3</octave></pitch><duration>2</duration><type>eighth</type></note></measure><measure number="9"><note><rest/><duration>12</duration><type>half</type><dot/></note></measure><measure number="10"><note><pitch><step>B</step><octave>3</octave></pitch><duration>3</duration><type>eighth</type><dot/><notations><slur type="start"/></notations></note><note><pitch><step>C</step><octave>4</octave></pitch><duration>1</duration><type>16th</type><notations><slur type="stop"/></notations></note><note><pitch><step>B</step><octave>3</octave></pitch><duration>2</duration><type>eighth</type></note><note><pitch><step>B</step><octave>3</octave></pitch><duration>2</duration><type>eighth</type></note><note><pitch><step>B</step><octave>3</octave></pitch><duration>2</duration><type>eighth</type></note><note><pitch><step>B</step><octave>3</octave></pitch><duration>2</duration><type>eighth</type></note></measure><measure number="11"><note><pitch><step>D</step><octave>4</octave></pitch><duration>6</duration><type>quarter</type><dot/></note><note><pitch><step>C</step><octave>4</octave></pitch><duration>4</duration><type>quarter</type></note><note><pitch><step>C</step><octave>4</octave></pitch><duration>2</duration><type>eighth</type></note></measure><measure number="12"><note><pitch><step>B</step><octave>3</octave></pitch><duration>4</duration><type>quarter</type></note><note><rest/><duration>2</duration><type>eighth</type></note><note><pitch><step>A</step><octave>3</octave></pitch><duration>2</duration><type>eighth</type><notations><slur type="start"/></notations></note><note><pitch><step>B</step><octave>3</octave></pitch><duration>2</duration><type>eighth</type><notations><slur type="stop"/></notations></note><note><pitch><step>C</step><octave>4</octave></pitch><duration>2</duration><type>eighth</type></note></measure><measure number="13"><note><pitch><step>G</step><octave>2</octave></pitch><duration>2</duration><type>eighth</type><notations><slur type="start"/></notations></note><note><pitch><step>B</step><octave>2</octave></pitch><duration>2</duration><type>eighth</type></note><note><pitch><step>C</step><octave>3</octave></pitch><duration>2</duration><type>eighth</type></note><note><pitch><step>D</step><octave>3</octave></pitch><duration>2</duration><type>eighth</type></note><note><pitch><step>C</step><octave>3</octave></pitch><duration>2</duration><type>eighth</type></note><note><pitch><step>B</step><octave>2</octave></pitch><duration>2</duration><type>eighth</type><notations><slur type="stop"/></notations></note></measure><measure number="14"><note><pitch><step>E</step><octave>4</octave></pitch><duration>3</duration><type>eighth</type><dot/></note><note><pitch><step>F</step><octave>4</octave></pitch><duration>1</duration><type>16th</type></note><note><pitch><step>E</step><octave>4</octave></pitch><duration>2</duration><type>eighth</type></note><note><pitch><step>F</step><octave>4</octave></pitch><duration>2</duration><type>eighth</type><notations><slur type="start"/></notations></note><note><pitch><step>F</step><octave>4</octave></pitch><duration>2</duration><type>eighth</type><notations><slur type="stop"/></notations></note><note><pitch><step>F</step><octave>4</octave></pitch><duration>2</duration><type>eighth</type></note></measure><measure number="15"><note><pitch><step>E</step><octave>4</octave></pitch><duration>4</duration><type>quarter</type><notations><slur type="start"/></notations></note><note><pitch><step>G</step><octave>4</octave></pitch><duration>2</duration><type>eighth</type><notations><slur type="stop"/></notations></note><note><pitch><step>F</step><octave>4</octave></pitch><duration>4</duration><type>quarter</type></note><note><pitch><step>F</step><octave>4</octave></pitch><duration>2</duration><type>eighth</type></note></measure><measure number="16"><note><pitch><step>E</step><octave>4</octave></pitch><duration>3</duration><type>eighth</type><dot/></note><note><pitch><step>E</step><octave>4</octave></pitch><duration>1</duration><type>16th</type></note><note><pitch><step>E</step><octave>4</octave></pitch><duration>2</duration><type>eighth</type></note><note><pitch><step>F</step><octave>4</octave></pitch><duration>2</duration><type>eighth</type><notations><slur type="start"/></notations></note><note><pitch><step>F</step><octave>4</octave></pitch><duration>2</duration><type>eighth</type><notations><slur type="stop"/></notations></note><note><pitch><step>F</step><octave>4</octave></pitch><duration>2</duration><type>eighth</type></note></measure><measure number="17"><note><pitch><step>E</step><octave>4</octave></pitch><duration>6</duration><type>quarter</type><dot/><notations><slur type="start"/></notations></note><note><pitch><step>E</step><octave>4</octave></pitch><duration>2</duration><type>eighth</type><notations><slur type="stop"/></notations></note><note><rest/><duration>2</duration><type>eighth</type></note><barline><bar-style>light-heavy</bar-style></barline></measure></part><part id="P3"><measure number="1"><attributes><divisions>4</divisions><clef><sign>G</sign><line>2</line></clef></attributes><direction><direction-type><metronome><beat-unit>quarter</beat-unit><per-minute>76</per-minute></metronome></direction-type><sound tempo="76"/></direction><note><rest/><duration>2</duration><type>eighth</type></note></measure><measure number="2"><note><rest/><duration>12</duration><type>half</type><dot/></note></measure><measure number="3"><note><rest/><duration>12</duration><type>half</type><dot/></note></measure><measure number="4"><note><rest/><duration>6</duration><type>quarter</type><dot/></note><note><pitch><step>G</step><octave>3</octave></pitch><duration>4</duration><type>quarter</type></note><note><pitch><step>G</step><octave>3</octave></pitch><duration>2</duration><type>eighth</type></note></measure><measure number="5"><note><pitch><step>G</step><octave>3</octave></pitch><duration>2</duration><type>eighth</type><notations><articulations><detached-legato/></articulations></notations></note><note><rest/><duration>2</duration><type>eighth</type></note><note><rest/><duration>2</duration><type>eighth</type></note><note><rest/><duration>4</duration><type>quarter</type></note><note><rest/><duration>2</duration><type>eighth</type></note></measure><measure number="6"><note><rest/><duration>12</duration><type>half</type><dot/></note></measure><measure number="7"><note><rest/><duration>12</duration><type>half</type><dot/></note></measure><measure number="8"><note><rest/><duration>2</duration><type>eighth</type></note><note><rest/><duration>2</duration><type>eighth</type></note><note><rest/><duration>2</duration><type>eighth</type></note><note><pitch><step>D</step><octave>3</octave></pitch><duration>2</duration><type>eighth</type></note><note><pitch><step>D</step><octave>3</octave></pitch><duration>2</duration><type>eighth</type></note><note><pitch><step>F</step><octave>3</octave></pitch><duration>2</duration><type>eighth</type></note></measure><measure number="9"><note><pitch><step>E</step><octave>3</octave></pitch><duration>2</duration><type>eighth</type><notations><articulations><detached-legato/></articulations></notations></note><note><rest/><duration>2</duration><type>eighth</type></note><note><rest/><duration>2</duration><type>eighth</type></note><note><rest/><duration>4</duration><type>quarter</type></note><note><rest/><duration>2</duration><type>eighth</type></note></measure><measure number="10"><note><rest/><duration>2</duration><type>eighth</type></note><note><rest/><duration>2</duration><type>eighth</type></note><note><rest/><duration>2</duration><type>eighth</type></note><note><pitch><step>D</step><octave>4</octave></pitch><duration>2</duration><type>eighth</type></note><note><rest/><duration>2</duration><type>eighth</type></note><note><rest/><duration>2</duration><type>eighth</type></note></measure><measure number="11"><note><pitch><step>G</step><octave>4</octave></pitch><duration>6</duration><type>quarter</type><dot/></note><note><pitch><step>E</step><octave>4</octave></pitch><duration>4</duration><type>quarter</type></note><note><pitch><step>E</step><octave>4</octave></pitch><duration>2</duration><type>eighth</type></note></measure><measure number="12"><note><pitch><step>D</step><octave>4</octave></pitch><duration>4</duration><type>quarter</type></note><note><pitch><step>D</step><octave>4</octave></pitch><duration>2</duration><type>eighth</type></note><note><pitch><step>D</step><octave>3</octave></pitch><duration>4</duration><type>quarter</type></note><note><pitch><step>D</step><octave>3</octave></pitch><duration>2</duration><type>eighth</type></note></measure><measure number="13"><note><pitch><step>D</step><octave>3</octave></pitch><duration>6</duration><type>quarter</type><dot/><notations><slur type="start"/></notations></note><note><pitch><step>D</step><octave>3</octave></pitch><duration>4</duration><type>quarter</type><notations><slur type="stop"/></notations></note><note><pitch><step>F</step><octave>4</octave></pitch><duration>2</duration><type>eighth</type></note></measure><measure number="14"><note><rest/><duration>12</duration><type>half</type><dot/></note></measure><measure number="15"><note><rest/><duration>12</duration><type>half</type><dot/></note></measure><measure number="16"><note><rest/><duration>2</duration><type>eighth</type></note><note><rest/><duration>2</duration><type>eighth</type></note><note><rest/><duration>2</duration><type>eighth</type></note><note><pitch><step>G</step><octave>3</octave></pitch><duration>2</duration><type>eighth</type></note><note><pitch><step>G</step><octave>3</octave></pitch><duration>2</duration><type>eighth</type></note><note><pitch><step>G</step><octave>3</octave></pitch><duration>2</duration><type>eighth</type></note></measure><measure number="17"><note><pitch><step>G</step><octave>3</octave></pitch><duration>2</duration><type>eighth</type><notations><articulations><detached-legato/></articulations></notations></note><note><rest/><duration>2</duration><type>eighth</type></note><note><rest/><duration>2</duration><type>eighth</type></note><note><rest/><duration>2</duration><type>eighth</type></note><note><rest/><duration>2</duration><type>eighth</type></note><barline><bar-style>light-heavy</bar-style></barline></measure></part><part id="P4"><measure number="1"><attributes><divisions>4</divisions><clef><sign>G</sign><line>2</line></clef></attributes><direction><direction-type><metronome><beat-unit>quarter</beat-unit><per-minute>76</per-minute></metronome></direction-type><sound tempo="76"/></direction><note><rest/><duration>2</duration><type>eighth</type></note></measure><measure number="2"><note><pitch><step>C</step><octave>3</octave></pitch><duration>1</duration><type>16th</type><notations><slur type="start"/></notations></note><note><pitch><step>G</step><octave>3</octave></pitch><duration>1</duration><type>16th</type></note><note><pitch><step>C</step><octave>4</octave></pitch><duration>2</duration><type>eighth</type></note><note><pitch><step>G</step><octave>3</octave></pitch><duration>2</duration><type>eighth</type><notations><slur type="stop"/></notations></note><note><pitch><step>C</step><octave>3</octave></pitch><duration>1</duration><type>16th</type><notations><slur type="start"/></notations></note><note><pitch><step>A</step><octave>3</octave></pitch><duration>1</duration><type>16th</type></note><note><pitch><step>D</step><octave>4</octave></pitch><duration>2</duration><type>eighth</type></note><note><pitch><step>B</step><octave>3</octave></pitch><duration>2</duration><type>eighth</type><notations><slur type="stop"/></notations></note></measure><measure number="3"><note><pitch><step>C</step><octave>3</octave></pitch><duration>1</duration><type>16th</type><notations><slur type="start"/></notations></note><note><pitch><step>G</step><octave>3</octave></pitch><duration>1</duration><type>16th</type></note><note><pitch><step>C</step><octave>4</octave></pitch><duration>2</duration><type>eighth</type></note><note><pitch><step>G</step><octave>3</octave></pitch><duration>2</duration><type>eighth</type><notations><slur type="stop"/></notations></note><note><pitch><step>F</step><octave>2</octave></pitch><duration>1</duration><type>16th</type><notations><slur type="start"/></notations></note><note><pitch><step>F</step><octave>3</octave></pitch><duration>1</duration><type>16th</type></note><note><pitch><step>A</step><octave>3</octave></pitch><duration>2</duration><type>eighth</type></note><note><pitch><step>F</step><octave>3</octave></pitch><duration>2</duration><type>eighth</type><notations><slur type="stop"/></notations></note></measure><measure number="4"><note><pitch><step>G</step><octave>2</octave></pitch><duration>1</duration><type>16th</type><notations><slur type="start"/></notations></note><note><pitch><step>E</step><octave>3</octave></pitch><duration>1</duration><type>16th</type></note><note><pitch><step>G</step><octave>3</octave></pitch><duration>2</duration><type>eighth</type></note><note><pitch><step>E</step><octave>3</octave></pitch><duration>2</duration><type>eighth</type><notations><slur type="stop"/></notations></note><note><pitch><step>G</step><octave>2</octave></pitch><duration>4</duration><type>quarter</type></note><note><pitch><step>G</step><octave>2</octave></pitch><duration>2</duration><type>eighth</type></note></measure><measure number="5"><note><pitch><step>C</step><octave>3</octave></pitch><duration>2</duration><type>eighth</type><notations><slur type="start"/></notations></note><note><pitch><step>G</step><octave>2</octave></pitch><duration>2</duration><type>eighth</type></note><note><pitch><step>E</step><octave>2</octave></pitch><duration>2</duration><type>eighth</type></note><note><pitch><step>C</step><octave>2</octave></pitch><duration>4</duration><type>quarter</type><notations><slur type="stop"/></notations></note><note><rest/><duration>2</duration><type>eighth</type></note></measure><measure number="6"><note><pitch><step>C</step><octave>3</octave></pitch><duration>1</duration><type>16th</type><notations><slur type="start"/></notations></note><note><pitch><step>G</step><octave>3</octave></pitch><duration>1</duration><type>16th</type></note><note><pitch><step>C</step><octave>4</octave></pitch><duration>2</duration><type>eighth</type></note><note><pitch><step>G</step><octave>3</octave></pitch><duration>2</duration><type>eighth</type><notations><slur type="stop"/></notations></note><note><pitch><step>C</step><octave>3</octave></pitch><duration>1</duration><type>16th</type><notations><slur type="start"/></notations></note><note><pitch><step>A</step><octave>3</octave></pitch><duration>1</duration><type>16th</type></note><note><pitch><step>D</step><octave>4</octave></pitch><duration>2</duration><type>eighth</type></note><note><pitch><step>B</step><octave>3</octave></pitch><duration>2</duration><type>eighth</type><notations><slur type="stop"/></notations></note></measure><measure number="7"><note><pitch><step>C</step><octave>3</octave></pitch><duration>1</duration><type>16th</type><notations><slur type="start"/></notations></note><note><pitch><step>G</step><octave>3</octave></pitch><duration>1</duration><type>16th</type></note><note><pitch><step>C</step><octave>4</octave></pitch><duration>2</duration><type>eighth</type></note><note><pitch><step>G</step><octave>3</octave></pitch><duration>2</duration><type>eighth</type><notations><slur type="stop"/></notations></note><note><pitch><step>F</step><octave>2</octave></pitch><duration>1</duration><type>16th</type><notations><slur type="start"/></notations></note><note><pitch><step>F</step><octave>3</octave></pitch><duration>1</duration><type>16th</type></note><note><pitch><step>A</step><octave>3</octave></pitch><duration>2</duration><type>eighth</type></note><note><pitch><step>F</step><octave>3</octave></pitch><duration>2</duration><type>eighth</type><notations><slur type="stop"/></notations></note></measure><measure number="8"><note><pitch><step>G</step><octave>2</octave></pitch><duration>2</duration><type>eighth</type></note><note><pitch><step>G</step><octave>3</octave></pitch><duration>2</duration><type>eighth</type></note><note><pitch><step>C</step><octave>3</octave></pitch><duration>2</duration><type>eighth</type></note><note><pitch><step>G</step><octave>2</octave></pitch><duration>2</duration><type>eighth</type></note><note><pitch><step>G</step><octave>2</octave></pitch><duration>2</duration><type>eighth</type></note><note><pitch><step>G</step><octave>2</octave></pitch><duration>2</duration><type>eighth</type></note></measure><measure number="9"><note><pitch><step>C</step><octave>3</octave></pitch><duration>2</duration><type>eighth</type><notations><slur type="start"/></notations></note><note><pitch><step>E</step><octave>2</octave></pitch><duration>2</duration><type>eighth</type></note><note><pitch><step>G</step><octave>2</octave></pitch><duration>2</duration><type>eighth</type></note><note><pitch><step>C</step><octave>2</octave></pitch><duration>4</duration><type>quarter</type><notations><slur type="stop"/></notations></note><note><rest/><duration>2</duration><type>eighth</type></note></measure><measure number="10"><note><pitch><step>G</step><octave>2</octave></pitch><duration>2</duration><type>eighth</type><notations><slur type="start"/></notations></note><note><pitch><step>D</step><octave>3</octave></pitch><duration>2</duration><type>eighth</type></note><note><pitch><step>G</step><octave>3</octave></pitch><duration>2</duration><type>eighth</type><notations><slur type="stop"/></notations></note><note><pitch><step>G</step><octave>2</octave></pitch><duration>2</duration><type>eighth</type><notations><slur type="start"/></notations></note><note><pitch><step>D</step><octave>3</octave></pitch><duration>2</duration><type>eighth</type></note><note><pitch><step>G</step><octave>3</octave></pitch><duration>2</duration><type>eighth</type><notations><slur type="stop"/></notations></note></measure><measure number="11"><note><pitch><step>G</step><octave>2</octave></pitch><duration>2</duration><type>eighth</type><notations><slur type="start"/></notations></note><note><pitch><step>D</step><octave>3</octave></pitch><duration>2</duration><type>eighth</type></note><note><pitch><step>G</step><octave>3</octave></pitch><duration>2</duration><type>eighth</type><notations><slur type="stop"/></notations></note><note><pitch><step>C</step><octave>2</octave></pitch><duration>2</duration><type>eighth</type><notations><slur type="start"/></notations></note><note><pitch><step>E</step><octave>3</octave></pitch><duration>2</duration><type>eighth</type></note><note><pitch><step>A</step><octave>3</octave></pitch><duration>2</duration><type>eighth</type><notations><slur type="stop"/></notations></note></measure><measure number="12"><note><pitch><step>D</step><octave>2</octave></pitch><duration>2</duration><type>eighth</type><notations><slur type="start"/></notations></note><note><pitch><step>D</step><octave>3</octave></pitch><duration>2</duration><type>eighth</type></note><note><pitch><step>B</step><octave>3</octave></pitch><duration>2</duration><type>eighth</type><notations><slur type="stop"/></notations></note><note><rest/><duration>4</duration><type>quarter</type></note><note><pitch><step>F</step><alter>1</alter><octave>3</octave></pitch><duration>2</duration><type>eighth</type></note></measure><measure number="13"><note><pitch><step>B</step><octave>3</octave></pitch><duration>2</duration><type>eighth</type><notations><slur type="start"/></notations></note><note><pitch><step>D</step><octave>4</octave></pitch><duration>2</duration><type>eighth</type></note><note><pitch><step>E</step><octave>4</octave></pitch><duration>2</duration><type>eighth</type></note><note><pitch><step>F</step><octave>4</octave></pitch><duration>2</duration><type>eighth</type></note><note><pitch><step>E</step><octave>4</octave></pitch><duration>2</duration><type>eighth</type></note><note><pitch><step>D</step><octave>4</octave></pitch><duration>2</duration><type>eighth</type><notations><slur type="stop"/></notations></note></measure><measure number="14"><note><pitch><step>C</step><octave>3</octave></pitch><duration>1</duration><type>16th</type><notations><slur type="start"/></notations></note><note><pitch><step>G</step><octave>3</octave></pitch><duration>1</duration><type>16th</type></note><note><pitch><step>C</step><octave>4</octave></pitch><duration>2</duration><type>eighth</type></note><note><pitch><step>G</step><octave>3</octave></pitch><duration>2</duration><type>eighth</type><notations><slur type="stop"/></notations></note><note><pitch><step>C</step><octave>3</octave></pitch><duration>1</duration><type>16th</type><notations><slur type="start"/></notations></note><note><pitch><step>A</step><octave>3</octave></pitch><duration>1</duration><type>16th</type></note><note><pitch><step>D</step><octave>4</octave></pitch><duration>2</duration><type>eighth</type></note><note><pitch><step>B</step><octave>3</octave></pitch><duration>2</duration><type>eighth</type><notations><slur type="stop"/></notations></note></measure><measure number="15"><note><pitch><step>C</step><octave>3</octave></pitch><duration>1</duration><type>16th</type><notations><slur type="start"/></notations></note><note><pitch><step>G</step><octave>3</octave></pitch><duration>1</duration><type>16th</type></note><note><pitch><step>C</step><octave>4</octave></pitch><duration>1</duration><type>16th</type><notations><slur type="stop"/></notations></note><note><rest/><duration>1</duration><type>16th</type></note><note><rest/><duration>2</duration><type>eighth</type></note><note><pitch><step>F</step><octave>2</octave></pitch><duration>1</duration><type>16th</type><notations><slur type="start"/></notations></note><note><pitch><step>A</step><octave>3</octave></pitch><duration>1</duration><type>16th</type></note><note><pitch><step>D</step><octave>4</octave></pitch><duration>1</duration><type>16th</type><notations><slur type="stop"/></notations></note><note><rest/><duration>1</duration><type>16th</type></note><note><rest/><duration>2</duration><type>eighth</type></note></measure><measure number="16"><note><pitch><step>G</step><octave>2</octave></pitch><duration>1</duration><type>16th</type><notations><slur type="start"/></notations></note><note><pitch><step>G</step><octave>3</octave></pitch><duration>1</duration><type>16th</type></note><note><pitch><step>C</step><octave>4</octave></pitch><duration>1</duration><type>16th</type><notations><slur type="stop"/></notations></note><note><rest/><duration>1</duration><type>16th</type></note><note><rest/><duration>2</duration><type>eighth</type></note><note><pitch><step>D</step><octave>4</octave></pitch><duration>2</duration><type>eighth</type></note><note><pitch><step>C</step><octave>4</octave></pitch><duration>2</duration><type>eighth</type></note><note><pitch><step>D</step><octave>4</octave></pitch><duration>2</duration><type>eighth</type></note></measure><measure number="17"><note><pitch><step>C</step><octave>3</octave></pitch><duration>2</duration><type>eighth</type><notations><slur type="start"/></notations></note><note><pitch><step>E</step><octave>3</octave></pitch><duration>2</duration><type>eighth</type></note><note><pitch><step>G</step><octave>3</octave></pitch><duration>2</duration><type>eighth</type></note><note><pitch><step>C</step><octave>3</octave></pitch><duration>2</duration><type>eighth</type><notations><slur type="stop"/></notations></note><note><rest/><duration>2</duration><type>eighth</type></note><barline><bar-style>light-heavy</bar-style></barline></measure></part></score-partwise>
